<svg width="177" height="129" viewBox="0 0 177 129" fill="none" xmlns="http://www.w3.org/2000/svg">
    <g clip-path="url(#clip0_435_40)">
        <mask id="path-1-outside-1_435_40" maskUnits="userSpaceOnUse" x="-0.0896606" y="-1"
            width="177" height="131" fill="black">
            <rect fill="white" x="-0.0896606" y="-1" width="177" height="131" />
            <path fill-rule="evenodd" clip-rule="evenodd"
                d="M167.893 11.7438C169.222 10.1872 167.553 7.85743 165.217 8.00685L124.854 10.5878C124.803 10.591 124.754 10.5954 124.705 10.6009H17.9103C12.3875 10.6009 7.91034 15.078 7.91034 20.6009V111.019C7.91034 116.542 12.3875 121.019 17.9103 121.019H134.883C140.406 121.019 144.883 116.542 144.883 111.019V38.6948C144.902 38.6742 144.921 38.6533 144.939 38.6318L167.893 11.7438Z" />
        </mask>
        <path
            d="M165.217 8.00685L165.727 15.9905L165.727 15.9905L165.217 8.00685ZM167.893 11.7438L173.977 16.938L173.977 16.938L167.893 11.7438ZM124.854 10.5878L125.364 18.5715L125.364 18.5715L124.854 10.5878ZM124.705 10.6009V18.6009H125.149L125.592 18.5516L124.705 10.6009ZM144.883 38.6948L139.005 33.2685L136.883 35.5669V38.6948H144.883ZM144.939 38.6318L138.854 33.4376L138.854 33.4387L144.939 38.6318ZM165.727 15.9905C164.105 16.0942 162.469 15.3516 161.425 13.8937C160.888 13.1432 160.385 12.0188 160.365 10.594C160.343 9.07042 160.89 7.6257 161.808 6.54959L173.977 16.938C177.509 12.8015 176.656 7.68129 174.433 4.57747C172.303 1.60286 168.664 -0.229967 164.706 0.0231506L165.727 15.9905ZM125.364 18.5715L165.727 15.9905L164.706 0.0231505L124.343 2.60411L125.364 18.5715ZM125.592 18.5516C125.514 18.5602 125.439 18.5668 125.364 18.5715L124.343 2.60411C124.168 2.6153 123.993 2.63061 123.818 2.65016L125.592 18.5516ZM124.705 2.60085H17.9103V18.6009H124.705V2.60085ZM17.9103 2.60085C7.96921 2.60085 -0.0896606 10.6597 -0.0896606 20.6009H15.9103C15.9103 19.4963 16.8058 18.6009 17.9103 18.6009V2.60085ZM-0.0896606 20.6009V111.019H15.9103V20.6009H-0.0896606ZM-0.0896606 111.019C-0.0896606 120.96 7.96922 129.019 17.9103 129.019V113.019C16.8058 113.019 15.9103 112.123 15.9103 111.019H-0.0896606ZM17.9103 129.019H134.883V113.019H17.9103V129.019ZM134.883 129.019C144.824 129.019 152.883 120.96 152.883 111.019H136.883C136.883 112.123 135.988 113.019 134.883 113.019V129.019ZM152.883 111.019V38.6948H136.883V111.019H152.883ZM138.854 33.4387C138.904 33.379 138.955 33.3223 139.005 33.2685L150.761 44.1211C150.849 44.0262 150.937 43.9275 151.024 43.825L138.854 33.4387ZM161.808 6.54959L138.854 33.4376L151.023 43.8261L173.977 16.938L161.808 6.54959Z"
            fill="#DF9BFF" mask="url(#path-1-outside-1_435_40)" />
        <path d="M75.9111 38.0187L75.9111 97.0187" stroke="#DF9BFF" stroke-width="8"
            stroke-linecap="round" />
    </g>
    <defs>
        <clipPath id="clip0_435_40">
            <rect width="176.5" height="129" fill="white" />
        </clipPath>
    </defs>
</svg>