<svg width="177" height="130" viewBox="0 0 177 130" fill="none" xmlns="http://www.w3.org/2000/svg">
<mask id="path-1-outside-1_155_75" maskUnits="userSpaceOnUse" x="0" y="-1" width="177" height="131" fill="black">
<rect fill="white" y="-1" width="177" height="131"/>
<path fill-rule="evenodd" clip-rule="evenodd" d="M167.983 11.7438C169.311 10.1872 167.643 7.85743 165.306 8.00685L124.943 10.5878C124.893 10.591 124.843 10.5954 124.794 10.6009H18C12.4772 10.6009 8 15.078 8 20.6009V111.019C8 116.542 12.4772 121.019 18 121.019H134.973C140.495 121.019 144.973 116.542 144.973 111.019V38.6948C144.992 38.6742 145.01 38.6533 145.029 38.6318L167.983 11.7438Z"/>
</mask>
<path d="M165.306 8.00685L165.817 15.9905L165.306 8.00685ZM167.983 11.7438L174.067 16.938V16.938L167.983 11.7438ZM124.943 10.5878L125.454 18.5715H125.454L124.943 10.5878ZM124.794 10.6009V18.6009H125.239L125.681 18.5516L124.794 10.6009ZM144.973 38.6948L139.094 33.2685L136.973 35.5669V38.6948H144.973ZM145.029 38.6318L138.944 33.4376L138.943 33.4387L145.029 38.6318ZM165.817 15.9905C164.195 16.0942 162.559 15.3516 161.515 13.8937C160.977 13.1432 160.474 12.0188 160.454 10.594C160.433 9.07042 160.979 7.6257 161.898 6.54959L174.067 16.938C177.598 12.8015 176.746 7.68129 174.523 4.57747C172.393 1.60286 168.754 -0.229966 164.796 0.0231509L165.817 15.9905ZM125.454 18.5715L165.817 15.9905L164.796 0.0231509L124.433 2.60411L125.454 18.5715ZM125.681 18.5516C125.604 18.5602 125.528 18.5668 125.454 18.5715L124.433 2.60411C124.258 2.61529 124.083 2.63061 123.908 2.65016L125.681 18.5516ZM124.794 2.60086H18V18.6009H124.794V2.60086ZM18 2.60086C8.05888 2.60086 0 10.6597 0 20.6009H16C16 19.4963 16.8954 18.6009 18 18.6009V2.60086ZM0 20.6009V111.019H16V20.6009H0ZM0 111.019C0 120.96 8.05888 129.019 18 129.019V113.019C16.8954 113.019 16 112.123 16 111.019H0ZM18 129.019H134.973V113.019H18V129.019ZM134.973 129.019C144.914 129.019 152.973 120.96 152.973 111.019H136.973C136.973 112.123 136.077 113.019 134.973 113.019V129.019ZM152.973 111.019V38.6948H136.973V111.019H152.973ZM138.943 33.4387C138.994 33.379 139.045 33.3223 139.094 33.2685L150.851 44.1211C150.939 44.0262 151.026 43.9275 151.114 43.825L138.943 33.4387ZM161.898 6.54959L138.944 33.4376L151.113 43.8261L174.067 16.938L161.898 6.54959Z" fill="#DF9BFF" mask="url(#path-1-outside-1_155_75)"/>
<path d="M76.0007 38.0187L76.0007 97.0187" stroke="#DF9BFF" stroke-width="8" stroke-linecap="round"/>
</svg>
